{"title":"Dark.Circles.2013.DVDRiP.AC3.XViD-CM8","uid":8480199,"size":1039880047,"categoryP":"video","categoryS":"movies","magnet":"?xt=urn:btih:0847e9146c68c31cc804486a014d84fa06be6757&amp;dn=Dark.Circles.2013.DVDRiP.AC3.XViD-CM8&amp;tr=udp%3A%2F%2Ftracker.openbittorrent.com%3A80&amp;tr=udp%3A%2F%2Fopen.demonii.com%3A1337&amp;tr=udp%3A%2F%2Ftracker.coppersurfer.tk%3A6969&amp;tr=udp%3A%2F%2Fexodus.desync.com%3A6969","seeders":13,"leechers":2,"uploader":"xxxlavalxxx","files":4,"time":1368716245,"description":" &lt;a href=&quot;http://www.imdb.com/title/tt1863201/&quot; rel=&quot;nofollow&quot; target=&quot;_NEW&quot;&gt;http://www.imdb.com/title/tt1863201/&lt;/a&gt;\n\n\nPlot:\n\n Urbanites Alex and Penny escape their stuffy city life to raise their newborn in the country. Instead, they find their spacious farmhome harbors horrors that threaten their relationship, imperil their son, and drive them to acts that neither believed they were capable of, but both are powerless to stop.\n\n\n Cast:\n\n Johnathon Schaech ... Alex\n Andrea Frankle ... Johanna\n Pell James ... Penny\n Philippe Brenninkmeyer ... Michael\n\nGenres:\n  Horror \n\n\nCountry:\n USA \n\nLanguage:\n English \n\n\n\nDark.Circles.2013.DVDRiP.AC3.XViD-CM8\n\n\n Source: LTFS Thx\n\n\n Video: 720x304 @bitrate 1596 2pass\n Audio: English AC3 5.1 @448\n Sample: yes included\n\n &lt;a href=&quot;\nhttp://www.imdb.com/title/tt1863201/&quot; rel=&quot;nofollow&quot; target=&quot;_NEW&quot;&gt;\nhttp://www.imdb.com/title/tt1863201/&lt;/a&gt;\n\n\n General\n Complete name                            : Dark.Circles.2013.DVDRiP.AC3.XViD-CM8.avi\n Format                                   : AVI\n Format/Info                              : Audio Video Interleave\n File size                                : 988 MiB\n Duration                                 : 1h 26mn\n Overall bit rate                         : 1 596 Kbps\n Writing application                      : VirtualDubMod 1.5.4.1 (build 2178/release)\n Writing library                          : VirtualDubMod build 2178/release\n\n Video\n ID                                       : 0\n Format                                   : MPEG-4 Visual\n Format profile                           : Advanced Simple@L5\n Format settings, BVOP                    : No\n Format settings, QPel                    : No\n Format settings, GMC                     : No warppoints\n Format settings, Matrix                  : Custom\n Codec ID                                 : XVID\n Codec ID/Hint                            : XviD\n Duration                                 : 1h 26mn\n Bit rate                                 : 1 141 Kbps\n Width                                    : 720 pixels\n Height                                   : 304 pixels\n Display aspect ratio                     : 2.35:1\n Frame rate                               : 23.976 fps\n Color space                              : YUV\n Chroma subsampling                       : 4:2:0\n Bit depth                                : 8 bits\n Scan type                                : Progressive\n Compression mode                         : Lossy\n Bits/(Pixel*Frame)                       : 0.217\n Stream size                              : 707 MiB (72%)\n Writing library                          : XviD 1.2.1 (UTC 2008-12-04)\n\n Audio\n ID                                       : 1\n Format                                   : AC-3\n Format/Info                              : Audio Coding 3\n Mode extension                           : CM (complete main)\n Format settings, Endianness              : Big\n Codec ID                                 : 2000\n Duration                                 : 1h 26mn\n Bit rate mode                            : Constant\n Bit rate                                 : 448 Kbps\n Channel(s)                               : 6 channels\n Channel positions                        : Front: L C R, Side: L R, LFE\n Sampling rate                            : 48.0 KHz\n Bit depth                                : 16 bits\n Compression mode                         : Lossy\n Stream size                              : 278 MiB (28%)\n Alignment                                : Split accross interleaves\n Interleave, duration                     : 96 ms (2.30 video frames)\n Interleave, preload duration             : 96 ms\n\n\n\n\n    &lt;a href=&quot;\thttp://addpix.net/viewer.php?file=67183132975416941195.jpg&quot; rel=&quot;nofollow&quot; target=&quot;_NEW&quot;&gt;\thttp://addpix.net/viewer.php?file=67183132975416941195.jpg&lt;/a&gt;\n    &lt;a href=&quot;\thttp://addpix.net/viewer.php?file=88182019468236916151.jpg&quot; rel=&quot;nofollow&quot; target=&quot;_NEW&quot;&gt;\thttp://addpix.net/viewer.php?file=88182019468236916151.jpg&lt;/a&gt;\n    &lt;a href=&quot;\thttp://addpix.net/viewer.php?file=58879463517448978381.jpg&quot; rel=&quot;nofollow&quot; target=&quot;_NEW&quot;&gt;\thttp://addpix.net/viewer.php?file=58879463517448978381.jpg&lt;/a&gt;\n    &lt;a href=&quot;\thttp://addpix.net/viewer.php?file=62353952301770976861.jpg&quot; rel=&quot;nofollow&quot; target=&quot;_NEW&quot;&gt;\thttp://addpix.net/viewer.php?file=62353952301770976861.jpg&lt;/a&gt;\n    &lt;a href=&quot;\thttp://addpix.net/viewer.php?file=95424168982308518711.jpg&quot; rel=&quot;nofollow&quot; target=&quot;_NEW&quot;&gt;\thttp://addpix.net/viewer.php?file=95424168982308518711.jpg&lt;/a&gt;\n    &lt;a href=&quot;\thttp://addpix.net/viewer.php?file=23415659719215449929.jpg&quot; rel=&quot;nofollow&quot; target=&quot;_NEW&quot;&gt;\thttp://addpix.net/viewer.php?file=23415659719215449929.jpg&lt;/a&gt;","torrent":{"xt":"urn:btih:0847e9146c68c31cc804486a014d84fa06be6757","amp;dn":"Dark.Circles.2013.DVDRiP.AC3.XViD-CM8","amp;tr":["udp%3A%2F%2Ftracker.openbittorrent.com%3A80","udp%3A%2F%2Fopen.demonii.com%3A1337","udp%3A%2F%2Ftracker.coppersurfer.tk%3A6969","udp%3A%2F%2Fexodus.desync.com%3A6969"],"infoHash":"0847e9146c68c31cc804486a014d84fa06be6757","infoHashBuffer":{"type":"Buffer","data":[8,71,233,20,108,104,195,28,200,4,72,106,1,77,132,250,6,190,103,87]},"announce":[],"urlList":[]}}